<svg width="150" height="150" viewBox="0 0 150 150" fill="none" xmlns="http://www.w3.org/2000/svg">
<path d="M117.439 60H125.326C124.555 57.4106 123.59 54.905 122.448 52.5H113.98C115.352 54.8717 116.513 57.3802 117.439 60Z" fill="#D30202"/>
<path d="M125.326 60H133.11C132.448 57.4293 131.62 54.9252 130.639 52.5H122.448C123.59 54.905 124.555 57.4106 125.326 60Z" fill="#D30202"/>
<path d="M133.11 60H140.827C140.247 57.4418 139.521 54.9387 138.659 52.5H130.639C131.62 54.9252 132.448 57.4293 133.11 60Z" fill="#D30202"/>
<path fill-rule="evenodd" clip-rule="evenodd" d="M109.38 60H117.439C116.513 57.3802 115.352 54.8717 113.98 52.5H105.003C106.736 54.808 108.21 57.3225 109.38 60Z" fill="#D30202"/>
<path d="M36.0223 52.4963H45C47.1324 49.6582 49.6582 47.1324 52.4963 45L52.5 36.0202C48.3565 38.4171 44.6307 41.4556 41.4584 45C39.4013 47.2984 37.5769 49.8096 36.0223 52.4963Z" fill="#D30202"/>
<path d="M45 52.4963C43.2652 54.8053 41.7908 57.3211 40.6203 60H45H52.5H60H67.5V52.5L60 52.4988L52.5 52.4976L45 52.4963Z" fill="#D30202"/>
<path d="M32.5606 60H40.6203C41.7908 57.3211 43.2652 54.8053 45 52.4963H36.0223C34.6495 54.8691 33.487 57.3788 32.5606 60Z" fill="#D30202"/>
<path fill-rule="evenodd" clip-rule="evenodd" d="M52.5 90H45V82.5H52.5V90Z" fill="#D30202"/>
<path d="M52.5 113.98V105.003C49.6603 102.87 47.1333 100.343 45 97.5037C43.2652 95.1947 41.7908 92.6789 40.6203 90H32.5606C36.1539 100.166 43.2967 108.656 52.5 113.98Z" fill="#D30202"/>
<path fill-rule="evenodd" clip-rule="evenodd" d="M52.5 90V105.003C49.6603 102.87 47.1333 100.343 45 97.5037V90H52.5Z" fill="#D30202"/>
<path d="M75 135V142.5C76.2583 142.5 77.5086 142.466 78.75 142.398V134.885C77.5098 134.961 76.2594 135 75 135Z" fill="#D30202"/>
<path d="M75 127.5V135C76.2594 135 77.5098 134.961 78.75 134.885V127.368C77.5114 127.456 76.2609 127.5 75 127.5Z" fill="#D30202"/>
<path d="M75 120V127.5C76.2609 127.5 77.5114 127.456 78.75 127.368V119.846C77.5135 119.948 76.2628 120 75 120Z" fill="#D30202"/>
<path d="M75 112.5V120C76.2628 120 77.5135 119.948 78.75 119.846V112.315C77.5166 112.437 76.2656 112.5 75 112.5Z" fill="#D30202"/>
<path d="M75 75V82.5V90V97.5V105V112.5C76.2656 112.5 77.5166 112.437 78.75 112.315V75H75Z" fill="#D30202"/>
<path d="M75 67.5V75H78.75V37.6852C77.5166 37.5627 76.2656 37.5 75 37.5V45V52.5V60V67.5Z" fill="#D30202"/>
<path d="M75 30V37.5C76.2656 37.5 77.5166 37.5627 78.75 37.6852V30.154C77.5135 30.052 76.2628 30 75 30Z" fill="#D30202"/>
<path d="M75 22.5V30C76.2628 30 77.5135 30.052 78.75 30.154V22.6319C77.5114 22.5444 76.2609 22.5 75 22.5Z" fill="#D30202"/>
<path d="M75 15V22.5C76.2609 22.5 77.5114 22.5444 78.75 22.6319V15.1153C77.5098 15.0388 76.2594 15 75 15Z" fill="#D30202"/>
<path d="M75 7.5V15C76.2594 15 77.5098 15.0388 78.75 15.1153V7.60241C77.5086 7.53443 76.2583 7.5 75 7.5Z" fill="#D30202"/>
<path fill-rule="evenodd" clip-rule="evenodd" d="M75 135V142.5C73.7417 142.5 72.4914 142.466 71.2501 142.398L71.2501 134.885C72.4903 134.961 73.7406 135 75 135Z" fill="#D30202"/>
<path fill-rule="evenodd" clip-rule="evenodd" d="M75 127.5V135C73.7406 135 72.4903 134.961 71.2501 134.885L71.2501 127.368C72.4887 127.456 73.7392 127.5 75 127.5Z" fill="#D30202"/>
<path fill-rule="evenodd" clip-rule="evenodd" d="M75 120V127.5C73.7392 127.5 72.4887 127.456 71.2501 127.368L71.2501 119.846C72.4866 119.948 73.7372 120 75 120Z" fill="#D30202"/>
<path fill-rule="evenodd" clip-rule="evenodd" d="M75 112.5V120C73.7372 120 72.4866 119.948 71.2501 119.846L71.2501 112.315L71.25 112.315" fill="#D30202"/>
<path fill-rule="evenodd" clip-rule="evenodd" d="M71.25 75H75V82.5V90V97.5V105V112.5C73.7344 112.5 72.4834 112.437 71.2501 112.315L71.25 75Z" fill="#D30202"/>
<path fill-rule="evenodd" clip-rule="evenodd" d="M75 67.5V75H71.25V67.5H75Z" fill="#D30202"/>
<path fill-rule="evenodd" clip-rule="evenodd" d="M75 60V67.5H71.25V60H75Z" fill="#D30202"/>
<path fill-rule="evenodd" clip-rule="evenodd" d="M75 52.5V60H71.25V52.5H75Z" fill="#D30202"/>
<path d="M67.5 52.5V60H71.25V52.5H67.5Z" fill="#D30202"/>
<path fill-rule="evenodd" clip-rule="evenodd" d="M150 75C150 116.421 116.421 150 75 150C33.5786 150 0 116.421 0 75C0 72.4688 0.125396 69.9668 0.370314 67.5C0.622441 64.9606 1.00123 62.4585 1.50027 60C2.01802 57.4494 2.6652 54.9458 3.43467 52.4963C12.9928 22.0699 41.419 0 75 0C116.421 0 150 33.5786 150 75ZM78.75 7.60241C80.0095 7.67137 81.2598 7.77487 82.5 7.91197C108.586 10.7956 130.192 28.5446 138.659 52.5C139.521 54.9387 140.247 57.4418 140.827 60C141.384 62.452 141.807 64.9547 142.088 67.5C142.36 69.9625 142.5 72.4649 142.5 75C142.5 109.744 116.25 138.357 82.5 142.088C81.2598 142.225 80.0095 142.329 78.75 142.398C77.5086 142.466 76.2583 142.5 75 142.5C73.7417 142.5 72.4914 142.466 71.2501 142.398C69.9906 142.329 68.7402 142.225 67.5 142.088C66.2392 141.949 64.9889 141.775 63.75 141.567C59.8783 140.917 56.1183 139.938 52.5 138.659C30.882 131.018 14.3184 112.677 9.17262 90C8.61624 87.548 8.19334 85.0453 7.91197 82.5H15.4642L23.0317 82.5L30.6222 82.5H38.2501H45H52.5V75H45H37.5H30H22.5H15H7.5C7.5 72.4649 7.63975 69.9625 7.91197 67.5C8.19334 64.9547 8.61624 62.452 9.17262 60C9.75341 57.4405 10.4796 54.9362 11.3422 52.4963C19.4008 29.7005 39.3574 12.5256 63.75 8.43328C64.9889 8.22544 66.2392 8.05134 67.5 7.91197C68.7402 7.77487 69.9905 7.67137 71.25 7.60241C72.4914 7.53443 73.7417 7.5 75 7.5C76.2583 7.5 77.5086 7.53443 78.75 7.60241ZM105.003 52.5C106.736 54.808 108.21 57.3225 109.38 60H105H103.44H97.5V52.4986L105.003 52.5ZM97.5 113.98V105.003C100.34 102.87 102.867 100.343 105 97.5037C108.277 93.1423 110.625 88.0431 111.75 82.5C112.242 80.0767 112.5 77.5685 112.5 75H120C120 77.5553 119.787 80.0609 119.378 82.5C117.12 95.9593 108.887 107.393 97.5 113.98ZM75 52.5V45V37.5C73.7344 37.5 72.4834 37.5627 71.25 37.6852V52.5H75Z" fill="#D30202"/>
<path fill-rule="evenodd" clip-rule="evenodd" d="M75 30V37.5C73.7344 37.5 72.4834 37.5627 71.25 37.6852V30.154C72.4865 30.052 73.7372 30 75 30Z" fill="#D30202"/>
<path fill-rule="evenodd" clip-rule="evenodd" d="M75 22.5V30C73.7372 30 72.4865 30.052 71.25 30.154V22.6319C72.4886 22.5444 73.7391 22.5 75 22.5Z" fill="#D30202"/>
<path fill-rule="evenodd" clip-rule="evenodd" d="M75 15V22.5C73.7391 22.5 72.4886 22.5444 71.25 22.6319L71.25 15.1153C72.4902 15.0388 73.7406 15 75 15Z" fill="#D30202"/>
<path fill-rule="evenodd" clip-rule="evenodd" d="M75 7.5V15C73.7406 15 72.4902 15.0388 71.25 15.1153V7.60241C72.4914 7.53443 73.7417 7.5 75 7.5Z" fill="#D30202"/>
<path d="M105 75H97.5V105.003C100.34 102.87 102.867 100.343 105 97.5037V82.5V75Z" fill="#D30202"/>
<path d="M97.5 75H105V67.5H97.5V75Z" fill="#D30202"/>
<path d="M97.5 67.5H105V60H103.44H97.5V67.5Z" fill="#D30202"/>
<path d="M105.003 52.5C102.869 49.6591 100.341 47.1311 97.5 44.9973V52.4986L105.003 52.5Z" fill="#D30202"/>
<path d="M97.5 36.0202V44.9973C100.341 47.1311 102.869 49.6591 105.003 52.5L105 41.4584C102.701 39.4003 100.188 37.5752 97.5 36.0202Z" fill="#D30202"/>
<path d="M97.5 36.0202C100.188 37.5752 102.701 39.4003 105 41.4584V36.0202L97.5 36.0202Z" fill="#D30202"/>
</svg>
