<svg width="75" height="75" viewBox="0 0 75 75" fill="none" xmlns="http://www.w3.org/2000/svg">
<path d="M58.7197 30H62.663C62.2776 28.7053 61.7951 27.4525 61.2239 26.25H56.9899C57.6759 27.4358 58.2567 28.6901 58.7197 30Z" fill="#D30202"/>
<path d="M62.663 30H66.5549C66.224 28.7146 65.8102 27.4626 65.3193 26.25H61.2239C61.7951 27.4525 62.2776 28.7053 62.663 30Z" fill="#D30202"/>
<path d="M66.5549 30H70.4137C70.1234 28.7209 69.7605 27.4694 69.3296 26.25H65.3193C65.8102 27.4626 66.224 28.7146 66.5549 30Z" fill="#D30202"/>
<path fill-rule="evenodd" clip-rule="evenodd" d="M54.6898 30H58.7197C58.2567 28.6901 57.6759 27.4358 56.9899 26.25H52.5014C53.3682 27.404 54.1049 28.6612 54.6898 30Z" fill="#D30202"/>
<path d="M18.0112 26.2482H22.5C23.5662 24.8291 24.8291 23.5662 26.2482 22.5L26.25 18.0101C24.1783 19.2085 22.3154 20.7278 20.7292 22.5C19.7006 23.6492 18.7884 24.9048 18.0112 26.2482Z" fill="#D30202"/>
<path d="M22.5 26.2482C21.6326 27.4027 20.8954 28.6605 20.3102 30H22.5H26.25H30H33.75V26.25L30 26.2494L26.25 26.2488L22.5 26.2482Z" fill="#D30202"/>
<path d="M16.2803 30H20.3102C20.8954 28.6605 21.6326 27.4027 22.5 26.2482H18.0112C17.3247 27.4345 16.7435 28.6894 16.2803 30Z" fill="#D30202"/>
<path fill-rule="evenodd" clip-rule="evenodd" d="M26.25 45H22.5V41.25H26.25V45Z" fill="#D30202"/>
<path d="M26.25 56.9899V52.5014C24.8302 51.4349 23.5667 50.1715 22.5 48.7518C21.6326 47.5973 20.8954 46.3395 20.3102 45H16.2803C18.0769 50.0832 21.6484 54.328 26.25 56.9899Z" fill="#D30202"/>
<path fill-rule="evenodd" clip-rule="evenodd" d="M26.25 45V52.5014C24.8302 51.4349 23.5667 50.1715 22.5 48.7518V45H26.25Z" fill="#D30202"/>
<path d="M37.5 67.5V71.25C38.1292 71.25 38.7543 71.2328 39.375 71.1988V67.4424C38.7549 67.4806 38.1297 67.5 37.5 67.5Z" fill="#D30202"/>
<path d="M37.5 63.75V67.5C38.1297 67.5 38.7549 67.4806 39.375 67.4424V63.6841C38.7557 63.7278 38.1304 63.75 37.5 63.75Z" fill="#D30202"/>
<path d="M37.5 60V63.75C38.1304 63.75 38.7557 63.7278 39.375 63.6841V59.923C38.7568 59.974 38.1314 60 37.5 60Z" fill="#D30202"/>
<path d="M37.5 56.25V60C38.1314 60 38.7568 59.974 39.375 59.923V56.1574C38.7583 56.2187 38.1328 56.25 37.5 56.25Z" fill="#D30202"/>
<path d="M37.5 37.5V41.25V45V48.75V52.5V56.25C38.1328 56.25 38.7583 56.2187 39.375 56.1574V37.5H37.5Z" fill="#D30202"/>
<path d="M37.5 33.75V37.5H39.375V18.8426C38.7583 18.7813 38.1328 18.75 37.5 18.75V22.5V26.25V30V33.75Z" fill="#D30202"/>
<path d="M37.5 15V18.75C38.1328 18.75 38.7583 18.7813 39.375 18.8426V15.077C38.7568 15.026 38.1314 15 37.5 15Z" fill="#D30202"/>
<path d="M37.5 11.25V15C38.1314 15 38.7568 15.026 39.375 15.077V11.3159C38.7557 11.2722 38.1304 11.25 37.5 11.25Z" fill="#D30202"/>
<path d="M37.5 7.5V11.25C38.1304 11.25 38.7557 11.2722 39.375 11.3159V7.55764C38.7549 7.5194 38.1297 7.5 37.5 7.5Z" fill="#D30202"/>
<path d="M37.5 3.75V7.5C38.1297 7.5 38.7549 7.5194 39.375 7.55764V3.8012C38.7543 3.76722 38.1292 3.75 37.5 3.75Z" fill="#D30202"/>
<path fill-rule="evenodd" clip-rule="evenodd" d="M37.5 67.5V71.25C36.8709 71.25 36.2457 71.2328 35.6251 71.1988L35.6251 67.4424C36.2451 67.4806 36.8703 67.5 37.5 67.5Z" fill="#D30202"/>
<path fill-rule="evenodd" clip-rule="evenodd" d="M37.5 63.75V67.5C36.8703 67.5 36.2451 67.4806 35.6251 67.4424L35.625 63.6841C36.2443 63.7278 36.8696 63.75 37.5 63.75Z" fill="#D30202"/>
<path fill-rule="evenodd" clip-rule="evenodd" d="M37.5 60V63.75C36.8696 63.75 36.2443 63.7278 35.625 63.6841L35.625 59.923C36.2433 59.974 36.8686 60 37.5 60Z" fill="#D30202"/>
<path fill-rule="evenodd" clip-rule="evenodd" d="M37.5 56.25V60C36.8686 60 36.2433 59.974 35.625 59.923L35.625 56.1574L35.625 56.1574" fill="#D30202"/>
<path fill-rule="evenodd" clip-rule="evenodd" d="M35.625 37.5H37.5V41.25V45V48.75V52.5V56.25C36.8672 56.25 36.2417 56.2187 35.625 56.1574L35.625 37.5Z" fill="#D30202"/>
<path fill-rule="evenodd" clip-rule="evenodd" d="M37.5 33.75V37.5H35.625V33.75H37.5Z" fill="#D30202"/>
<path fill-rule="evenodd" clip-rule="evenodd" d="M37.5 30V33.75H35.625V30H37.5Z" fill="#D30202"/>
<path fill-rule="evenodd" clip-rule="evenodd" d="M37.5 26.25V30H35.625V26.25H37.5Z" fill="#D30202"/>
<path d="M33.75 26.25V30H35.625V26.25H33.75Z" fill="#D30202"/>
<path fill-rule="evenodd" clip-rule="evenodd" d="M75 37.5C75 58.2107 58.2107 75 37.5 75C16.7893 75 0 58.2107 0 37.5C0 36.2344 0.0626979 34.9834 0.185157 33.75C0.311221 32.4803 0.500614 31.2292 0.750136 30C1.00901 28.7247 1.3326 27.4729 1.71733 26.2482C6.49639 11.035 20.7095 0 37.5 0C58.2107 0 75 16.7893 75 37.5ZM39.375 3.8012C40.0048 3.83569 40.6299 3.88744 41.25 3.95598C54.2931 5.39782 65.096 14.2723 69.3296 26.25C69.7605 27.4694 70.1234 28.7209 70.4137 30C70.6919 31.226 70.9033 32.4773 71.044 33.75C71.1801 34.9813 71.25 36.2325 71.25 37.5C71.25 54.8721 58.1248 69.1786 41.25 71.044C40.6299 71.1126 40.0047 71.1643 39.375 71.1988C38.7543 71.2328 38.1292 71.25 37.5 71.25C36.8709 71.25 36.2457 71.2328 35.6251 71.1988C34.9953 71.1643 34.3701 71.1126 33.75 71.044C33.1196 70.9743 32.4944 70.8873 31.875 70.7834C29.9391 70.4586 28.0592 69.969 26.25 69.3296C15.441 65.5091 7.1592 56.3387 4.58631 45C4.30812 43.774 4.09667 42.5227 3.95598 41.25H7.7321L11.5158 41.25L15.3111 41.25H19.1251H22.5H26.25V37.5H22.5H18.75H15H11.25H7.5H3.75C3.75 36.2325 3.81988 34.9813 3.95598 33.75C4.09667 32.4773 4.30812 31.226 4.58631 30C4.8767 28.7202 5.23982 27.4681 5.67109 26.2482C9.70041 14.8503 19.6787 6.26281 31.875 4.21664C32.4944 4.11272 33.1196 4.02567 33.75 3.95598C34.3701 3.88744 34.9952 3.83569 35.625 3.8012C36.2457 3.76722 36.8708 3.75 37.5 3.75C38.1292 3.75 38.7543 3.76722 39.375 3.8012ZM52.5014 26.25C53.3682 27.404 54.1049 28.6612 54.6898 30H52.5H51.7199H48.75V26.2493L52.5014 26.25ZM48.75 56.9899V52.5014C50.1698 51.4349 51.4334 50.1715 52.5 48.7518C54.1384 46.5711 55.3123 44.0216 55.8749 41.25C56.1209 40.0383 56.25 38.7842 56.25 37.5H60C60 38.7777 59.8935 40.0305 59.6889 41.25C58.5599 47.9797 54.4435 53.6964 48.75 56.9899ZM37.5 26.25V22.5V18.75C36.8672 18.75 36.2417 18.7813 35.625 18.8426V26.25H37.5Z" fill="#D30202"/>
<path fill-rule="evenodd" clip-rule="evenodd" d="M37.5 15V18.75C36.8672 18.75 36.2417 18.7813 35.625 18.8426V15.077C36.2433 15.026 36.8686 15 37.5 15Z" fill="#D30202"/>
<path fill-rule="evenodd" clip-rule="evenodd" d="M37.5 11.25V15C36.8686 15 36.2433 15.026 35.625 15.077V11.3159C36.2443 11.2722 36.8696 11.25 37.5 11.25Z" fill="#D30202"/>
<path fill-rule="evenodd" clip-rule="evenodd" d="M37.5 7.5V11.25C36.8696 11.25 36.2443 11.2722 35.625 11.3159L35.625 7.55764C36.2451 7.5194 36.8703 7.5 37.5 7.5Z" fill="#D30202"/>
<path fill-rule="evenodd" clip-rule="evenodd" d="M37.5 3.75V7.5C36.8703 7.5 36.2451 7.5194 35.625 7.55764V3.8012C36.2457 3.76722 36.8708 3.75 37.5 3.75Z" fill="#D30202"/>
<path d="M52.5 37.5H48.75V52.5014C50.1698 51.4349 51.4334 50.1715 52.5 48.7518V41.25V37.5Z" fill="#D30202"/>
<path d="M48.75 37.5H52.5V33.75H48.75V37.5Z" fill="#D30202"/>
<path d="M48.75 33.75H52.5V30H51.7199H48.75V33.75Z" fill="#D30202"/>
<path d="M52.5014 26.25C51.4344 24.8296 50.1704 23.5656 48.75 22.4986V26.2493L52.5014 26.25Z" fill="#D30202"/>
<path d="M48.75 18.0101V22.4986C50.1704 23.5656 51.4344 24.8296 52.5014 26.25L52.5 20.7292C51.3503 19.7002 50.0941 18.7876 48.75 18.0101Z" fill="#D30202"/>
<path d="M48.75 18.0101C50.0941 18.7876 51.3503 19.7002 52.5 20.7292V18.0101L48.75 18.0101Z" fill="#D30202"/>
</svg>
