<svg width="75" height="75" viewBox="0 0 75 75" fill="none" xmlns="http://www.w3.org/2000/svg">
<path fill-rule="evenodd" clip-rule="evenodd" d="M37.5 75C58.2107 75 75 58.2107 75 37.5C75 16.7893 58.2107 0 37.5 0C20.7095 0 6.49639 11.035 1.71733 26.2482C1.3326 27.4729 1.00901 28.7247 0.750136 30C0.500614 31.2292 0.311221 32.4803 0.185157 33.75C0.0626979 34.9834 0 36.2344 0 37.5C0 58.2107 16.7893 75 37.5 75ZM4.58631 30C4.8767 28.7202 5.23982 27.4681 5.67109 26.2482C9.70041 14.8503 19.6787 6.26281 31.875 4.21664C32.4944 4.11272 33.1196 4.02567 33.75 3.95598C34.3701 3.88744 34.9952 3.83569 35.625 3.8012V7.55764V11.3159V15.077V18.8426V26.25H33.75L30 26.2494L26.25 26.2488L22.5 26.2482C23.5662 24.8291 24.8291 23.5662 26.2482 22.5L26.25 18.0101C24.1783 19.2085 22.3154 20.7278 20.7292 22.5C19.7006 23.6492 18.7884 24.9048 18.0112 26.2482C17.3247 27.4345 16.7435 28.6894 16.2803 30H20.3102H22.5H26.25H30H33.75H35.625V33.75V37.5L35.625 56.1574L35.625 59.923L35.625 63.6841L35.6251 67.4424L35.6251 71.1988C34.9953 71.1643 34.3701 71.1126 33.75 71.044C33.1196 70.9743 32.4944 70.8873 31.875 70.7834C29.9391 70.4586 28.0592 69.969 26.25 69.3296C15.441 65.5091 7.15921 56.3387 4.58631 45C4.30812 43.774 4.09667 42.5227 3.95598 41.25H7.7321L11.5158 41.25L15.3111 41.25H19.1251H22.5V45V48.7518C21.6326 47.5973 20.8954 46.3395 20.3102 45H16.2803C18.0769 50.0832 21.6484 54.328 26.25 56.9899V52.5014V45V41.25V37.5H22.5H18.75H15H11.25H7.5H3.75C3.75 36.2325 3.81988 34.9813 3.95598 33.75C4.09667 32.4773 4.30812 31.226 4.58631 30ZM41.25 3.95598C54.2931 5.39782 65.096 14.2723 69.3296 26.25H65.3193H61.2239H56.9899H52.5014L52.5 20.7292V18.0101L48.75 18.0101V22.4986V26.2493V30V33.75V37.5V52.5014V56.9899C54.4435 53.6964 58.5599 47.9797 59.6889 41.25L55.8749 41.25C55.3123 44.0216 54.1384 46.5711 52.5 48.7518V41.25V37.5V33.75V30H54.6898H58.7197H62.663H66.5549H70.4137C70.6919 31.226 70.9033 32.4773 71.044 33.75C71.1801 34.9813 71.25 36.2325 71.25 37.5C71.25 54.8721 58.1248 69.1786 41.25 71.044C40.6299 71.1126 40.0047 71.1643 39.375 71.1988V67.4424V63.6841V59.923V56.1574V37.5V18.8426V15.077V11.3159V7.55764V3.8012C40.0048 3.83569 40.6299 3.88744 41.25 3.95598Z" fill="#D30202"/>
</svg>
