<svg width="150" height="150" viewBox="0 0 150 150" fill="none" xmlns="http://www.w3.org/2000/svg">
<path d="M45 75H52.5V82.5V90V105.003V113.98C43.2967 108.656 36.1539 100.166 32.5606 90H40.6203C41.7908 92.6789 43.2652 95.1947 45 97.5037V90V82.5H38.2501H30.6222L23.0317 82.5L15.4642 82.5H7.91197C8.19334 85.0453 8.61624 87.548 9.17262 90C14.3184 112.677 30.882 131.018 52.5 138.659C56.1184 139.938 59.8783 140.917 63.75 141.567C64.9889 141.775 66.2392 141.949 67.5 142.088C68.7402 142.225 69.9906 142.329 71.2501 142.398L71.2501 134.885L71.2501 127.368L71.2501 119.846L71.2501 112.315L71.25 75V67.5V60H67.5H60H52.5H45H40.6203H32.5606C33.487 57.3788 34.6495 54.8691 36.0223 52.4963C37.5769 49.8096 39.4013 47.2984 41.4584 45C44.6307 41.4556 48.3565 38.4171 52.5 36.0202L52.4963 45C49.6582 47.1324 47.1324 49.6582 45 52.4963L52.5 52.4976L60 52.4988L67.5 52.5H71.25V37.6852V30.154V22.6319V15.1153V7.60241C69.9905 7.67137 68.7402 7.77487 67.5 7.91197C66.2392 8.05134 64.9889 8.22544 63.75 8.43328C39.3574 12.5256 19.4008 29.7005 11.3422 52.4963C10.4796 54.9362 9.75341 57.4405 9.17262 60C8.61624 62.452 8.19334 64.9547 7.91197 67.5C7.63975 69.9625 7.5 72.4649 7.5 75H15H22.5H30H37.5H45Z" fill="#D30202"/>
<path d="M140.827 60H133.11H125.326H117.439H109.38H105V67.5V75V82.5V97.5037C108.277 93.1423 110.625 88.0431 111.75 82.5L119.378 82.5C117.12 95.9593 108.887 107.393 97.5 113.98V105.003V75V67.5V60V52.4986V44.9973V36.0202L105 36.0202V41.4584L105.003 52.5H113.98H122.448H130.639H138.659C130.192 28.5446 108.586 10.7956 82.5 7.91197C81.2598 7.77487 80.0095 7.67137 78.75 7.60241V15.1153V22.6319V30.154V37.6852V75V112.315V119.846V127.368V134.885V142.398C80.0095 142.329 81.2598 142.225 82.5 142.088C116.25 138.357 142.5 109.744 142.5 75C142.5 72.4649 142.36 69.9625 142.088 67.5C141.807 64.9547 141.384 62.452 140.827 60Z" fill="#D30202"/>
<path fill-rule="evenodd" clip-rule="evenodd" d="M150 75C150 116.421 116.421 150 75 150C33.5786 150 0 116.421 0 75C0 72.4688 0.125396 69.9668 0.370314 67.5C0.622441 64.9606 1.00123 62.4585 1.50027 60C2.01802 57.4494 2.6652 54.9458 3.43467 52.4963C12.9928 22.0699 41.419 0 75 0C116.421 0 150 33.5786 150 75ZM52.5 75H45H37.5H30H22.5H15H7.5C7.5 72.4649 7.63975 69.9625 7.91197 67.5C8.19334 64.9547 8.61624 62.452 9.17262 60C9.75341 57.4405 10.4796 54.9362 11.3422 52.4963C19.4008 29.7005 39.3574 12.5256 63.75 8.43328C64.9889 8.22544 66.2392 8.05134 67.5 7.91197C68.7402 7.77487 69.9905 7.67137 71.25 7.60241V15.1153V22.6319V30.154V37.6852V52.5H67.5L60 52.4988L52.5 52.4976L45 52.4963C47.1324 49.6582 49.6582 47.1324 52.4963 45L52.5 36.0202C48.3565 38.4171 44.6307 41.4556 41.4584 45C39.4013 47.2984 37.5769 49.8096 36.0223 52.4963C34.6495 54.8691 33.487 57.3788 32.5606 60H40.6203H45H52.5H60H67.5H71.25V67.5V75L71.2501 112.315L71.2501 119.846L71.2501 127.368L71.2501 134.885L71.2501 142.398C72.4914 142.466 73.7417 142.5 75 142.5C76.2583 142.5 77.5086 142.466 78.75 142.398V134.885V127.368V119.846V112.315V75V37.6852V30.154V22.6319V15.1153V7.60241C80.0095 7.67137 81.2598 7.77487 82.5 7.91197C108.586 10.7956 130.192 28.5446 138.659 52.5H130.639H122.448H113.98H105.003L105 41.4584V36.0202L97.5 36.0202V44.9973V52.4986V60V67.5V75V105.003V113.98C108.887 107.393 117.12 95.9593 119.378 82.5L111.75 82.5C110.625 88.0431 108.277 93.1423 105 97.5037V82.5V75V67.5V60H109.38H117.439H125.326H133.11H140.827C141.384 62.452 141.807 64.9547 142.088 67.5C142.36 69.9625 142.5 72.4649 142.5 75C142.5 109.744 116.25 138.357 82.5 142.088C81.2598 142.225 80.0095 142.329 78.75 142.398C77.5086 142.466 76.2583 142.5 75 142.5C73.7417 142.5 72.4914 142.466 71.2501 142.398C69.9906 142.329 68.7402 142.225 67.5 142.088C66.2392 141.949 64.9889 141.775 63.75 141.567C59.8783 140.917 56.1184 139.938 52.5 138.659C30.882 131.018 14.3184 112.677 9.17262 90C8.61624 87.548 8.19334 85.0453 7.91197 82.5H15.4642L23.0317 82.5L30.6222 82.5H38.2501H45V90V97.5037C43.2652 95.1947 41.7908 92.6789 40.6203 90H32.5606C36.1539 100.166 43.2967 108.656 52.5 113.98V105.003V90V82.5V75Z" fill="#EBF1F4"/>
</svg>
