<svg width="150" height="150" viewBox="0 0 150 150" fill="none" xmlns="http://www.w3.org/2000/svg">
<path fill-rule="evenodd" clip-rule="evenodd" d="M75 150C116.421 150 150 116.421 150 75C150 33.5786 116.421 0 75 0C41.419 0 12.9928 22.0699 3.43467 52.4963C2.6652 54.9458 2.01802 57.4494 1.50027 60C1.00123 62.4585 0.622441 64.9606 0.370314 67.5C0.125396 69.9668 0 72.4688 0 75C0 116.421 33.5786 150 75 150ZM9.17262 60C9.75341 57.4405 10.4796 54.9362 11.3422 52.4963C19.4008 29.7005 39.3574 12.5256 63.75 8.43328C64.9889 8.22544 66.2392 8.05134 67.5 7.91197C68.7402 7.77487 69.9905 7.67137 71.25 7.60241V15.1153V22.6319V30.154V37.6852V52.5H67.5L60 52.4988L52.5 52.4976L45 52.4963C47.1324 49.6582 49.6582 47.1324 52.4963 45L52.5 36.0202C48.3565 38.4171 44.6307 41.4556 41.4584 45C39.4013 47.2984 37.5769 49.8096 36.0223 52.4963C34.6495 54.8691 33.487 57.3788 32.5606 60H40.6203H45H52.5H60H67.5H71.25V67.5V75L71.2501 112.315L71.2501 119.846L71.2501 127.368L71.2501 134.885L71.2501 142.398C69.9906 142.329 68.7402 142.225 67.5 142.088C66.2392 141.949 64.9889 141.775 63.75 141.567C59.8783 140.917 56.1184 139.938 52.5 138.659C30.882 131.018 14.3184 112.677 9.17262 90C8.61624 87.548 8.19334 85.0453 7.91197 82.5H15.4642L23.0317 82.5L30.6222 82.5H38.2501H45V90V97.5037C43.2652 95.1947 41.7908 92.6789 40.6203 90H32.5606C36.1539 100.166 43.2967 108.656 52.5 113.98V105.003V90V82.5V75H45H37.5H30H22.5H15H7.5C7.5 72.4649 7.63975 69.9625 7.91197 67.5C8.19334 64.9547 8.61624 62.452 9.17262 60ZM82.5 7.91197C108.586 10.7956 130.192 28.5446 138.659 52.5H130.639H122.448H113.98H105.003L105 41.4584V36.0202L97.5 36.0202V44.9973V52.4986V60V67.5V75V105.003V113.98C108.887 107.393 117.12 95.9593 119.378 82.5L111.75 82.5C110.625 88.0431 108.277 93.1423 105 97.5037V82.5V75V67.5V60H109.38H117.439H125.326H133.11H140.827C141.384 62.452 141.807 64.9547 142.088 67.5C142.36 69.9625 142.5 72.4649 142.5 75C142.5 109.744 116.25 138.357 82.5 142.088C81.2598 142.225 80.0095 142.329 78.75 142.398V134.885V127.368V119.846V112.315V75V37.6852V30.154V22.6319V15.1153V7.60241C80.0095 7.67137 81.2598 7.77487 82.5 7.91197Z" fill="#D30202"/>
</svg>
